<?xml version="1.0" encoding="utf-8"?>
<!-- Generator: Adobe Illustrator 27.2.0, SVG Export Plug-In . SVG Version: 6.00 Build 0)  -->
<svg version="1.1" id="Layer_1" xmlns="http://www.w3.org/2000/svg" xmlns:xlink="http://www.w3.org/1999/xlink" x="0px" y="0px"
	 viewBox="0 0 1186 360" style="enable-background:new 0 0 1186 360;" xml:space="preserve">
<style type="text/css">
	.st0{fill:#969696;}
</style>
<path class="st0" d="M22.8,143.1v-18.6H126l7.9,7.9v41.8l-5.9,5.9l5.9,5.9v49.7H30.7l-7.9-7.9V209h7.9v-15.9l-7.9-7.9v-18.4h7.9
	v-15.9L22.8,143.1L22.8,143.1z M107.4,151H57.3v15.9h50.2V151z M57.3,209h50.2v-15.9H57.3V209z"/>
<path class="st0" d="M255.8,193.1l7.9,8.1v34.3H160.5l-7.9-7.9V209h7.9v-58.1l-7.9-7.9v-18.6H187l7.9,7.9v18.6H187V209h50.2v-15.9
	L255.8,193.1L255.8,193.1z"/>
<path class="st0" d="M273.7,124.5h103.2l7.9,7.9v103.2h-18.6l-7.9-7.9v-34.4h-50.2v42.3h-18.6l-7.9-7.9v-34.4l-7.9-7.9v-18.4h7.9
	V151l-7.9-7.9C273.7,143.1,273.7,124.5,273.7,124.5z M308.1,166.8h50.2v-15.9h-50.2V166.8z"/>
<path class="st0" d="M506.7,124.5l7.9,7.9v34.4H496l-7.9-8.1V151h-50.2V209h50.2v-15.9h18.6l7.9,8.1v34.3H411.4l-7.9-7.9V209h7.9
	v-58.1l-7.9-7.9v-18.6L506.7,124.5L506.7,124.5z"/>
<path class="st0" d="M636.5,124.5l7.9,7.9v23.3l-11.1,11.1h3.2l7.9,7.9v60.8h-18.6l-7.9-7.9v-34.4h-50.2V209l7.9,7.9v18.6h-34.4
	l-7.9-7.9V209h7.9v-15.9l-7.9-7.9v-18.4h7.9v-15.9l-7.9-7.9v-18.6h34.4l7.9,7.9v18.6h-7.9v15.9h28.1l22.1-22v-20.3
	C617.9,124.5,636.5,124.5,636.5,124.5z"/>
<path class="st0" d="M767.6,124.5l7.9,7.9V151h-76.7v15.9h68.7l7.9,7.9v18.4h-76.7v15.9l7.9,7.9v18.6h-34.4l-7.9-7.9v-18.6h7.9
	v-15.9l-7.9-7.9v-18.4h7.9V151l-7.9-7.9v-18.6L767.6,124.5L767.6,124.5z"/>
<path class="st0" d="M892.8,124.5l7.9,7.9v103.2H797.5l-7.9-7.9V209h7.9V151l-7.9-7.9v-18.6H824l7.9,7.9V151H824V209h50.2v-84.6
	H892.8z"/>
<path class="st0" d="M921.2,143.1v-18.6h103.2l7.9,7.9v23.3l-11.1,11.1h3.2l7.9,7.9v60.8h-18.6l-7.9-7.9v-34.4h-50.2V209l7.9,7.9
	v18.6h-34.4l-7.9-7.9V209h7.9v-15.9l-7.9-7.9v-18.4h7.9v-15.9L921.2,143.1L921.2,143.1z M983.8,166.9l15.9-15.9h-44v15.9H983.8z"/>
<path class="st0" d="M1155.3,124.5l7.9,7.9v103.2H1060l-7.9-7.9V209h81.4l-15.7-15.9H1060l-7.9-7.9v-18.4h7.9v-15.9l-7.9-7.9v-18.6
	h34.4l7.9,7.9v18.6h-7.9v15.9h42.2l7.9,7.9v-50.2H1155.3L1155.3,124.5z"/>
</svg>
