<?xml version="1.0" encoding="utf-8"?>
<!-- Generator: Adobe Illustrator 27.2.0, SVG Export Plug-In . SVG Version: 6.00 Build 0)  -->
<svg version="1.1" id="Layer_1" xmlns="http://www.w3.org/2000/svg" xmlns:xlink="http://www.w3.org/1999/xlink" x="0px" y="0px"
	 viewBox="0 0 256 256" style="enable-background:new 0 0 256 256;" xml:space="preserve">
<style type="text/css">
	.st0{fill:#680FF4;}
</style>
<g>
	<ellipse cx="128" cy="128" rx="128" ry="128"/>
</g>
<g>
	<path class="st0" d="M210.6,99.6c-1.9,2.7-3.8,5.4-5.6,8.1c0.1,0.1,0.3,0.2,0.4,0.3c4-5,8-10,12-14.9c0.1,0.1,0.2,0.2,0.3,0.3
		c-2.3,2.9-4.7,5.9-7,8.8c0.1,0.1,0.2,0.2,0.3,0.3c3.1-3.2,6.2-6.5,9.1-9.6c-0.3,1.1-0.7,2.3-1.1,3.6c0.2,0.1,0.4,0.3,0.6,0.4
		c0.8-0.4,1.6-0.8,2.3-1.1c-0.4,0.7-0.9,1.7-1.5,2.7c0.2,0.1,0.3,0.3,0.5,0.4c0.7-0.5,1.4-0.9,2.4-1.6c-0.5,0.8-0.8,1.4-1.2,2
		c0.4,0.4,0.9,0.7,1.5,1.2c1-1.5,2-2.8,2.9-4.2l0.2,0.1c-0.5,0.8-1,1.6-1.4,2.3c1.1,1.5,2.2,1.8,3.9,0.9c0.7-0.4,1.7-0.1,2.2-0.1
		c0.2,1,0.4,2,0.7,3c0.2,0,0.6,0,1,0c-0.3,0.5-0.4,0.8-0.7,1.1c-2.3,2.6-4.7,5.2-7.1,7.7c-2.5,2.6-5,5.1-7.6,7.5c-1,1-1.4,2-1.3,3.4
		c0.1,1.9,0,3.8,0,5.8c-0.2-2.2-0.4-4.3-0.6-6.7c-4.2,3-6.9,7.1-10.2,11.1c3.5,2.8,7.1,5.7,11,8.9c-0.3-3.5-0.5-6.5-0.8-9.6l0.1,0
		c0.5,3.1,1,6.2,1.5,9.3c0.1,0.6,0.2,1.2,0.6,1.6c1.8,1.8,3.7,3.6,5.6,5.2c6.5,5.3,13,10.5,19.5,15.7c0.1,0.1,0.2,0.3,0.4,0.6
		c-0.6-0.1-1-0.2-1.4-0.2c0.2,0.2,0.5,0.5,0.7,0.7c-1.4,0.6-2.8,1.2-4.2,1.9c0.2,0.2,0.4,0.3,0.6,0.5c-0.8-0.1-1.6-0.2-2.7-0.3
		c0.4,1.2,0.6,1.9,0.9,2.7c-1.1-0.6-2.2-1.2-3.3-1.7c-0.2-0.1-0.6,0-0.9,0.1c0.1,0.3,0,0.8,0.2,1c0.6,0.6,1.2,1,1.7,1.8
		c-0.9-0.4-1.9-0.8-3.1-1.3c0.4,0.7,0.7,1.2,1,1.8c-1.4,0-2.7,0-4,0c1.2,1.1,2.5,2.3,4,3.6c-2.6-0.9-3.6-3.6-6.6-4.3
		c0.7,1.2,1.1,1.9,1.5,2.6c-0.1,0.1-0.2,0.3-0.4,0.4c-11.4-9.5-22.7-18.9-34.5-28.7c-1.2,1.4-2.4,2.7-3.6,4
		c-0.1,0.1-0.3,0.3-0.3,0.4c1,1.9-0.8,2.5-1.6,3.5c-1.5,2.1-3.1,4-4.9,6.3c0.2-0.6,0.3-0.9,0.3-1.1l-0.2-0.2
		c-0.8,0.9-1.6,1.7-2.4,2.6c-1.6,1.8-3.2,3.7-4.9,5.4c-0.8,0.8-1.9,1.4-2.8,2.1c-0.1-0.1-0.2-0.3-0.3-0.4c0.2-0.5,0.5-1,0.6-1.3
		c-0.6,0-1.2-0.3-1.6,0c-1.7,0.8-1.8,2-0.5,3.4c-0.9,0.6-0.9,0.6,1.3,2.9c0.9,1,1.9,2,2.7,3.1c-2.3-1.2-3.4-3.9-5.9-4.8
		c-0.1,0.1-0.2,0.3-0.4,0.4c1.1,1.3,2.1,2.5,3.2,3.9c-2.6-1.3-3.2-5.1-7-4.9c0.7,1.1,1.3,2,2.2,3.2c-0.8-0.2-1.2-0.3-2-0.5
		c0.7,0.9,1.2,1.4,2,2.3c-0.9-0.4-1.5-0.7-2.4-1.2c0.5,0.8,0.8,1.2,1.1,1.6l-0.1,0.1c-1.4-1.2-2.7-2.4-4.2-3.7
		c-0.1,0.4-0.2,0.6-0.3,0.8c-0.6-0.3-1.1-0.6-1.7-0.9c-0.1,0.1-0.2,0.2-0.2,0.3c0.2,0.3,0.3,0.6,0.4,0.7c-0.7-0.2-1.4-0.5-2.2-0.7
		c-0.1,0.1-0.2,0.3-0.2,0.4c1.1,1,2.2,2.1,3.4,3.1l-0.1,0.1c-1.9-1.2-3.8-2.5-6.1-4c0.6,1.7,1.1,2.8,1.6,4c0.1-0.1,0.2-0.2,0.3-0.2
		c-7.3-7-14.5-13.9-21.9-21c1.4,3.8,2.7,7.5,4.1,11.3l-0.2,0.1c-0.2-0.4-0.4-0.7-0.7-1.5c-0.8,1.5-1.4,2.4-1.8,3.3
		c-0.5-0.4-1.2-1.8-2.1,0.1c-0.1,0.2-1.2-0.1-1.8-0.1c-0.5,0-0.9,0-1.4,0c0,0.5-0.1,1,0.1,1.3c0.9,1.2,1.9,2.3,2.6,3.7
		c-1.2-1.4-2.5-2.8-3.7-4.2c-0.1,0.1-0.3,0.2-0.4,0.3c0.5,0.8,1.1,1.7,1.6,2.5l-0.1,0.1c-1-1-2-1.9-3-2.9c-0.1,0.1-0.3,0.3-0.4,0.4
		c0.9,1.2,1.9,2.3,2.8,3.5c-0.1,0.1-0.2,0.2-0.3,0.2c-1-1.2-2.1-2.3-3-3.5c-1-1.3-2.5-0.5-3.6-0.9c-0.2-0.1-0.8,1-1.4,1.9
		c0.4,0.6,1,1.5,1.6,2.4c-1.7-0.4-1.8-3.3-4.5-2.7c0.6,0.9,1.1,1.5,1.7,2.3c-1.8-0.7-3.8,0-5-1.7c-0.1-0.1-0.8-0.1-0.9,0
		c-0.2,0.4-0.3,1-0.3,1.4c0.2,1.1,0.2,1.1-1.1,1.4c0.9,1.1,1.7,2.1,2.6,3.1l-0.2,0.2c-1.6-1.7-3.2-3.4-5-5.2
		c-0.2,0.6-0.4,0.9-0.5,1.3c-0.2-0.1-0.3-0.2-0.4-0.3c-1.2-1.8-2.4-3.6-3.5-5.4c-0.7-1.2-1.7-1.1-2.7-0.9c-0.3,0.1-0.5,0.7-0.8,1
		c1.6,1.1,0,2-0.2,3c-0.1,0.4-0.3,0.7-0.4,1.1c-0.8,0.1-1.6,0.2-2.8,0.3c0.8,0.9,1.2,1.4,1.9,2.2c-3.8,0-7.5,0-11.5,0
		c0.5,0.5,0.7,0.7,0.9,1c-0.1,0-0.2,0.1-0.3,0c-1.4-0.5-2.7-1.4-4.4-0.6c-0.2,0.1-0.6-0.3-0.8-0.5c-4.7-5.1-3.5-3.4-10.5-4.7
		c-8.7-1.6-17.4-3.3-26.1-4.7c-5.5-0.9-11.1-1.4-16.6-2c-3.4-0.3-6.9-0.5-10.3-0.7c-0.2,0-0.6,0-0.7-0.1c-0.6-2.1-2.7-1.2-4-1.9
		c-0.6-0.4-1.4-0.9-1.6-1.5c-0.4-1.6-1.2-2.7-3-3.1c2.6-0.9,3.2-2.9,1.8-4.8c-0.4-0.6-0.5-1.3-1-2.5c-0.4-0.6-1.1-1.6-2-2.8
		c0.3-0.7,0.7-1.6,2.2-1.6c1.2,0,2.1-1.6,1.5-3c1.4,0.1,2.6,0.1,3.8,0.3c4.8,0.5,9.6,1.2,14.4,1.6c6.7,0.7,13.3,1.3,20,1.8
		c0.9,0.1,2-0.2,2.8-0.6c0.2-0.1,0.2-1.4-0.2-1.9c-1.3-1.7-2.8-3.3-4.2-4.9c-8.7-10-17.5-20-26.3-30.2c0.4,0,0.6,0,0.8,0.1
		c0-2.2,0-4.3,0-6.5c0,0,0.3,0.1,1,0.2c-0.6-1.1-1.1-1.8-1.5-2.7c0.3,0.1,0.6,0.2,1.1,0.4c-0.4-0.9-0.7-1.7-1.1-2.4
		c0.8,0.5,1.5,1,2.3,1.5c0.1-0.2,0.3-0.3,0.4-0.5c-0.3-0.6-0.5-1.2-0.8-1.9c0.6,0.1,1.2,0.3,1.8,0.4c0.1-0.1,0.2-0.3,0.3-0.4
		c-0.5-0.7-1-1.4-1.7-2.3c2,0.1,2.8,3.3,5.1,1.4c-0.2-0.4-0.4-0.8-0.6-1.3c0.1-0.1,0.1-0.2,0.2-0.3c1,0.6,2,1.1,3,1.7
		c0.2-1,0.4-2,0.6-3c1.4,0.2,2.3,2.2,4.1,0.9c1.5,1.5,3.2,2.9,4.6,4.6C59,113,73.5,130.1,87.8,147.3c1.8,2.2,3.7,2.1,6.3,1.8
		c-3.2-5.3-6.2-10.3-9.4-15.6c0.5,0.1,0.8,0.1,1,0.2c-0.1-1-0.1-2.1-0.2-3.3c1.6,0.3,2.1-1.8,3.7-1.3c0.1-0.3,0.3-0.7,0.2-1
		c-0.1-0.8-0.3-1.5-0.5-2.3c0.1,0,0.3-0.1,0.4-0.1c0.1,0.4,0.1,0.8,0.3,1.1c0.3,0.4,0.7,0.7,1.1,1c0.2-0.3,0.5-0.7,0.7-1
		c0.3-0.3,0.7-0.6,1.1-0.9c-0.2-0.6-0.4-1.1-0.7-1.9c0.4,0.1,0.6,0.2,0.8,0.2c0.5,0.1,0.9,0.1,1.4,0.2c0-0.4-0.1-0.9-0.1-1.3
		c0-0.2,0.3-0.4,0.6-0.6c-0.4-0.6-0.8-1.4-1.3-2.2c0.1-0.1,0.2-0.1,0.3-0.2c0.9,1.2,1.9,2.3,2.6,3.5c5.9,9.7,11.6,19.4,17.5,29
		c1.8,3,3.8,5.8,5.8,8.7c0.2-0.1,0.4-0.2,0.7-0.4c-5.7-12.5-11.4-25-17.3-38c1.1,1.9,2,3.4,2.9,4.9c0.1-0.1,0.2-0.1,0.4-0.2
		c-2-4.1-4-8.2-6-12.3c0.1-0.1,0.2-0.1,0.3-0.2c0.4,0.3,0.9,0.6,1.3,0.9c0.1-0.1,0.2-0.1,0.3-0.2c-0.6-0.9-1.2-1.7-1.8-2.6l0.2-0.1
		c1.2,1.3,2.5,2.6,4,4.3c0-1.4,0-2.3,0-3.2l0.3,0c0.2,0.7,0.4,1.4,0.6,2.1c0.1,0,0.2,0,0.3,0c0-0.9,0.1-1.8,0.1-2.8
		c0.6,0.3,0.5,2.1,1.9,0.8c-0.8-1.4-1.6-2.7-2.4-4l0.2-0.2c0.5,0.7,1,1.3,1.4,2c0.1,0,0.2-0.1,0.3-0.1c-0.4-1.2-0.9-2.3-1.3-3.5
		l0.1-0.1c0.4,0.6,0.8,1.2,1.2,1.8c0.1-0.1,0.3-0.1,0.4-0.2c-1.2-2.9-2.4-5.9-3.7-8.8l0.2-0.1c1.7,3.3,3.5,6.7,5.3,10.2
		c0.3-0.5,0.6-0.9,0.8-1.3c0.3,0.5,0.6,0.9,1.1,1.7c0.5-2.1-0.9-3.1-1.9-4.6c0.7,0.4,1.2,0.6,2,1c-0.7-1.6-1.2-2.8-1.8-4.1
		c0.1-0.1,0.2-0.1,0.3-0.2c0.5,0.6,1,1.3,1.7,2.2c-0.1-0.9-0.1-1.4-0.2-2.5c1.6,3.4,3,6.3,4.5,9.2c0.5,1,1.3,1.8,1.9,2.7
		c0.2-0.1,0.4-0.2,0.6-0.3c-0.1-0.3-0.2-0.7-0.3-1.2c0.4,0.3,0.7,0.6,1.2,1c0-0.5-0.1-0.8-0.1-1.4c8,8.7,15.8,17.3,23.6,25.8
		c0.1-0.1,0.3-0.2,0.4-0.2c-1.2-4.3-2.4-8.7-3.6-13c-1.2-4-2.5-7.8-3.7-11.8c-0.7-2.4-0.9-4.9-1.7-7.2c-1.5-4.4-3.2-8.7-4.7-12.7
		c-0.1,0,0.3,0.2,0.8,0.5c-0.1-0.6-0.2-1-0.3-1.5c1.5,0.3,1.2,3,3.4,2.3c0-1.9,0-3.8,0-5.8c0.1,0,0.2-0.1,0.3-0.1
		c0.3,0.5,0.6,1,1.1,1.9c0-1.5,0-2.5,0-3.8c0.6,1.2-0.6,2.7,1.3,3.5c0-1.5,0-2.8,0-4.2l0.2,0c0.2,1.4,0.4,2.8,0.5,4.2
		c0.2,0,0.4,0,0.7,0c0.1-0.8,0.1-1.6,0.1-2.2c0.8,1.4,1.7,2.9,2.6,4.5c0-0.1,0.1-0.2,0.1-0.3c0.5,0.3,0.9,0.6,1.4,1
		c0.2-0.1,0.4-0.1,0.7-0.2c-0.3-2.9-0.7-5.9-1-8.6c0.2,0.5,0.5,1.3,0.9,2.2c0.2-0.4,0.3-0.7,0.3-0.7c1,0.9,2.1,1.8,3.4,3
		c0-0.9,0-1.4,0-2l0.2,0c0.3,1.5,0.6,3,0.8,4.5c0.2,1.4,0.8,1.9,2.3,1.3c-0.4-2-0.8-4.1-1.2-6.1c0.1,0,0.2,0,0.3-0.1
		c0.2,0.7,0.3,1.4,0.5,2.1c0.3,0.8,0,2.1,1.4,2.3c0.2,0,0.4,0.8,0.5,1.2c0.9,4,1.9,7.9,2.8,11.9c0.1,0.4,0.3,0.8,0.5,1.6
		c1-1.2,1.9-2.2,2.6-3c-0.1-1-0.1-1.9-0.2-2.8c0.7,0,1.5,0.1,2.3,0.1c0.1-0.2,0.2-0.4,0.2-0.7c-2.3-1.9-4.6-3.8-6.9-5.6
		c2.7,1.2,4.5,3.6,7.2,4.8c0.2-0.2,0.3-0.4,0.5-0.6c-0.8-0.5-1.6-1-2.4-1.5c0.1-0.2,0.3-0.3,0.4-0.5c0.8,0.5,1.5,1,2.3,1.5l0.2-0.2
		c-0.3-0.5-0.5-0.9-0.9-1.5c1.2,0.8,2.2,1.5,3.5,2.3c0.1-0.5,0.1-0.8,0.2-1.6c1.1,0.6,2.2,1,3.1,1.7c3,2.4,5.7,5.2,9,7.2
		c6.6,4,11.5,9.8,18.1,14.7c0.3-0.4,0.6-1,1-1.5c5-6.2,10-12.5,15-18.7C209.7,100.5,210.2,100,210.6,99.6L210.6,99.6z M155.1,119
		c1.3,5,2.2,9.6,3.8,14c0.2,0,0.3-0.1,0.5-0.1c-0.2-2.1-0.5-4.3-0.7-6.4c0.7,2.7,1.4,5.4,1.9,8.1c0.1,0.3-0.2,0.8-0.3,1.1
		c-0.1,0.7-0.3,1.5-0.2,2.2c1.3,4.6,2.7,9.2,4.1,13.9c0.2,0.5,0.4,1,0.7,1.8c5.3-6.5,10.4-12.8,15.6-19.1c-0.6-0.6-1.1-1-1.5-1.3
		c-6.7-5.7-13.4-11.4-20.1-17.1c-0.4-0.4-1.1-0.9-1.1-1.2c0.2-2-1.6-2.2-2.6-3.2c1.1,3.5,0.4,7.5,2.8,10.7
		C157.2,121.4,156.3,120.4,155.1,119z M90.7,118.9c-0.2-0.8-0.4-1.8-0.9-2.5c-4.6-5.7-9.2-11.3-13.8-16.9c-0.7-0.9-1.5-1.8-2.2-2.6
		L73.5,97c0.5,0.6,0.9,1.3,1.2,1.6c-0.5,2.4-1.8,3.7-4.5,3.4c-0.1-0.1-0.5-0.6-1.1-1.3c0.3,0.9,0.4,1.5,0.7,2.3
		c-0.8-0.3-1.2-0.5-1.6-0.6c-0.6,3.1,0.7,5.7,2.1,8.2c-0.2,0.2-0.5,0.3-0.7,0.5c-0.6-0.8-1.3-1.6-1.9-2.4c4.4,5.8,8.9,11.4,13.5,17
		c0.4,0.5,1.3,0.6,2,0.7c0.8,0.1,1.7,0,2.5,0c0.1-0.6,0.2-1.3,0.4-2.4c0.6,0.7,0.9,1.1,1.3,1.7c-0.1-1.1-1.7-2.3,0.4-2.8
		c-0.5-0.8-0.9-1.5-1.3-2.2c0.1-0.1,0.2-0.1,0.3-0.2c0.5,0.4,1,0.7,1.5,1.1c0.5-0.3,1-0.6,1.5-0.9c0.6,0.6,1,1.1,1.4,1.5
		C91.1,121.2,90.9,120,90.7,118.9z M125,90.5c2.6,5.4,5.3,10.8,7.9,16.1C130.8,101,128.5,95.5,125,90.5z M110.2,89
		c-0.5-0.2-1.8,0.1-1.9,0.4c-0.8,2.1,1.7,1.1,2,2.2C111.2,90.6,111.3,89.6,110.2,89z M194.8,150c-1.2,0.7-1.2,1.4,0,2.1
		C196,151.4,196,150.8,194.8,150z M134.5,168.6c1.1,1.3,2.2,2.5,3.3,3.8l0.2-0.2c-1.2-1.1-2.4-2.3-3.6-3.4L134.5,168.6z M210.6,99.6
		c1.2-1.6,2.4-3.1,3.7-4.7c-0.1-0.1-0.3-0.2-0.4-0.3C212.8,96.3,211.7,97.9,210.6,99.6L210.6,99.6z"/>
</g>
</svg>
